<svg xmlns="http://www.w3.org/2000/svg" viewBox="0 0 64 64" enable-background="new 0 0 64 64"><g fill="#1D1D1B"><path d="M57.443 28.486c-.497 0-.9.508-.9 1.133v6.762c0 .625.403 1.132.9 1.132.498 0 .9-.507.9-1.132v-6.764c0-.624-.403-1.132-.9-1.132zM6.95 28.486c-.496 0-.9.508-.9 1.133v6.76c0 .625.404 1.132.9 1.134.498 0 .9-.507.9-1.132v-6.764c0-.624-.402-1.132-.9-1.132zM18.03 18.233c-1.657 0-3.002 1.52-3.002 3.396 0 5.683 0 17.06.002 22.74 0 1.876 1.343 3.397 3 3.397 1.66 0 3.004-1.522 3.004-3.396v-8.63h21.843v8.632c0 1.874 1.345 3.395 3.003 3.395 1.658 0 3-1.522 3-3.396V21.63c0-1.877-1.342-3.397-3-3.397s-3.003 1.52-3.003 3.396v8.63H21.034V21.63c0-1.876-1.344-3.395-3.003-3.395zM52.858 22.77h-.294c-1.25 0-2.263 1.01-2.263 2.26v15.94c0 1.25 1.015 2.263 2.265 2.263h.294c1.25 0 2.263-1.01 2.263-2.262V25.034c0-1.25-1.015-2.264-2.265-2.264zM11.5 22.77h-.295c-1.25 0-2.263 1.01-2.263 2.26v15.94c0 1.25 1.013 2.263 2.263 2.263h.294c1.25 0 2.262-1.01 2.262-2.262V25.034c0-1.25-1.012-2.264-2.262-2.264z"/></g></svg>